<svg xmlns="http://www.w3.org/2000/svg" viewBox="0 0 256 256">
  <!-- AI Genie mascot icon — full colour on dark background -->
  <rect width="256" height="256" rx="54" fill="#064E3B"/>
  <g transform="translate(28,10) scale(2)">
    <!-- Wispy tail -->
    <path d="M50,108 Q36,110 34,102 Q32,93 40,91 Q44,89 50,93 Q56,89 60,91 Q68,93 66,102 Q64,110 50,108 Z" fill="#059669" opacity="0.55"/>
    <!-- Body -->
    <ellipse cx="50" cy="65" rx="28" ry="32" fill="#10B981"/>
    <!-- Arms raised -->
    <path d="M23,56 Q15,44 19,36 Q22,30 27,33 Q29,36 27,41 Q25,46 27,51" fill="none" stroke="#10B981" stroke-width="9" stroke-linecap="round"/>
    <ellipse cx="19.5" cy="35" rx="7" ry="7" fill="#10B981"/>
    <circle cx="20" cy="33" r="5" fill="#059669"/>
    <path d="M77,56 Q85,44 81,36 Q78,30 73,33 Q71,36 73,41 Q75,46 73,51" fill="none" stroke="#10B981" stroke-width="9" stroke-linecap="round"/>
    <ellipse cx="80.5" cy="35" rx="7" ry="7" fill="#10B981"/>
    <circle cx="80" cy="33" r="5" fill="#059669"/>
    <!-- Cheeks -->
    <ellipse cx="30" cy="70" rx="6" ry="4.5" fill="#6EE7B7" opacity="0.65"/>
    <ellipse cx="70" cy="70" rx="6" ry="4.5" fill="#6EE7B7" opacity="0.65"/>
    <!-- Eyes -->
    <ellipse cx="39" cy="61" rx="9.5" ry="11" fill="white"/>
    <ellipse cx="61" cy="61" rx="9.5" ry="11" fill="white"/>
    <circle cx="40.5" cy="62.5" r="6.5" fill="#064E3B"/>
    <circle cx="62.5" cy="62.5" r="6.5" fill="#064E3B"/>
    <circle cx="43" cy="60" r="2.5" fill="white"/>
    <circle cx="65" cy="60" r="2.5" fill="white"/>
    <!-- Smile -->
    <path d="M40,76 Q50,83 60,76" fill="none" stroke="#047857" stroke-width="3" stroke-linecap="round"/>
    <!-- Turban -->
    <ellipse cx="50" cy="35" rx="19" ry="9.5" fill="#F59E0B"/>
    <ellipse cx="50" cy="35" rx="13" ry="7" fill="#D97706"/>
    <ellipse cx="50" cy="29" rx="9" ry="6" fill="#F59E0B"/>
    <circle cx="50" cy="25" r="5" fill="#FCD34D"/>
    <circle cx="50" cy="25" r="3" fill="white"/>
    <!-- Sparkles -->
    <circle cx="88" cy="20" r="2.5" fill="#FCD34D" opacity="0.9"/>
    <circle cx="8" cy="24" r="2" fill="#FCD34D" opacity="0.8"/>
  </g>
</svg>
