<svg xmlns="http://www.w3.org/2000/svg" viewBox="0 0 48 48">
  <rect width="48" height="48" rx="10" fill="#064E3B"/>
  <g transform="translate(4,2) scale(0.4)">
    <ellipse cx="50" cy="65" rx="28" ry="32" fill="#10B981"/>
    <path d="M23,56 Q15,44 19,36 Q22,30 27,33" fill="none" stroke="#10B981" stroke-width="9" stroke-linecap="round"/>
    <circle cx="19" cy="33" r="7" fill="#10B981"/>
    <path d="M77,56 Q85,44 81,36 Q78,30 73,33" fill="none" stroke="#10B981" stroke-width="9" stroke-linecap="round"/>
    <circle cx="81" cy="33" r="7" fill="#10B981"/>
    <ellipse cx="39" cy="61" rx="9.5" ry="11" fill="white"/>
    <ellipse cx="61" cy="61" rx="9.5" ry="11" fill="white"/>
    <circle cx="41" cy="63" r="6.5" fill="#064E3B"/>
    <circle cx="63" cy="63" r="6.5" fill="#064E3B"/>
    <circle cx="43" cy="60" r="2.5" fill="white"/>
    <circle cx="65" cy="60" r="2.5" fill="white"/>
    <ellipse cx="50" cy="35" rx="19" ry="9.5" fill="#F59E0B"/>
    <ellipse cx="50" cy="35" rx="12" ry="7" fill="#D97706"/>
    <circle cx="50" cy="26" r="5" fill="#FCD34D"/>
    <circle cx="50" cy="26" r="2.5" fill="white"/>
  </g>
</svg>
