<svg xmlns="http://www.w3.org/2000/svg" viewBox="0 0 20 20" fill="none">
  <!-- Admin sidebar icon (20x20) — monochrome-compatible via WordPress color tinting -->
  <!-- Document shape -->
  <path d="M4.5 3h7.2l3.8 3.8V17a1 1 0 0 1-1 1H4.5a1 1 0 0 1-1-1V4a1 1 0 0 1 1-1Z" fill="currentColor" opacity="0.9"/>
  <!-- Dog-ear fold -->
  <path d="M11.7 3v3.3c0 .28.22.5.5.5H16" stroke="#0E2240" stroke-width="0.8" fill="none" opacity="0.4"/>
  <!-- Lines on document -->
  <rect x="5.5" y="9.5" width="5.5" height="1.2" rx="0.6" fill="#0E2240" opacity="0.35"/>
  <rect x="5.5" y="11.8" width="7" height="1.2" rx="0.6" fill="#0E2240" opacity="0.35"/>
  <rect x="5.5" y="14.1" width="4.5" height="1.2" rx="0.6" fill="#0E2240" opacity="0.35"/>
  <!-- Lightning bolt (AI spark) -->
  <path d="M13.8 2 L11.5 7.2 L13 7.2 L10.5 12.5 L15.8 6.5 L13.8 6.5 Z" fill="currentColor"/>
</svg>
